<svg width="256" height="256" viewBox="0 0 256 256" fill="none" xmlns="http://www.w3.org/2000/svg">
  <title>ICAIC Foundation</title>
  <defs>
    <linearGradient id="g" x1="40" y1="20" x2="220" y2="236" gradientUnits="userSpaceOnUse">
      <stop stop-color="#6EE7FF" />
      <stop offset="0.55" stop-color="#A78BFA" />
      <stop offset="1" stop-color="#22C55E" stop-opacity="0.9" />
    </linearGradient>
    <filter id="s" x="-30%" y="-30%" width="160%" height="160%">
      <feDropShadow dx="0" dy="14" stdDeviation="12" flood-color="#000000" flood-opacity="0.35" />
    </filter>
  </defs>
  <rect x="24" y="24" width="208" height="208" rx="48" fill="#0B1220" />
  <path
    d="M128 46C172.183 46 208 81.8172 208 126C208 170.183 172.183 206 128 206C83.8172 206 48 170.183 48 126C48 81.8172 83.8172 46 128 46Z"
    stroke="url(#g)"
    stroke-width="14"
    filter="url(#s)"
  />
  <path
    d="M86 148C92 116 110 94 128 94C146 94 164 116 170 148"
    stroke="url(#g)"
    stroke-width="14"
    stroke-linecap="round"
  />
  <circle cx="98" cy="170" r="10" fill="#6EE7FF" />
  <circle cx="158" cy="170" r="10" fill="#A78BFA" />
  <circle cx="128" cy="70" r="9" fill="#22C55E" />
</svg>
